<svg xmlns="http://www.w3.org/2000/svg" viewBox="-176 81 246.5 140" enable-background="new -176 81 246.5 140"><style type="text/css">.st0{fill:#FFFFFF;}</style><path class="st0" d="M56.1 173.8v23.4h4.5v-6.4l4.4 6.4h5.8l-5.7-7.4 5.3-6.3H65l-4.3 5.7v-15.4h-4.6zm-1.2 9.4c-.7 0-2.2-.1-3.5 1.4-.3.4-.8 1.1-.8 1.1v-2.2h-4.4v13.7h4.5v-4.9c0-2.4.1-3.8 1-4.6.5-.5 1.1-.5 1.4-.5.8 0 1.6.5 1.8.6v-4.6zM37 186.9c1.9 0 3.2 1.6 3.2 3.5 0 1.8-1.3 3.5-3.2 3.5-1.3 0-2.4-.8-3-1.9-.3-.7-.3-1.2-.3-1.4 0-1.3.6-2.5 1.7-3.1.8-.6 1.3-.6 1.6-.6m-.1-3.9c-2.3 0-3.7.8-4.5 1.3-1.1.8-3.1 2.5-3.1 6 0 1.1.1 3.5 2.3 5.4.6.5 1.1.8 1.4 1 .7.3 2.1 1 4.1 1 3 0 5.7-1.5 7-4.3.2-.5.7-1.6.7-3 0-.7-.1-2.7-1.4-4.4-.9-1.2-2.9-3-6.5-3m-33.6.6l6 13.6h4.4l1.8-5.2c.7-2 .8-2.4 1.1-3.7.1.5.2 1.1.4 1.6.2.6.3 1.1.5 1.7l2 5.6h4.2l6.2-13.6h-4.5l-2.4 5.7c-.4 1-.8 2.1-1.2 3.1-.1-.5-.2-.9-.3-1.4-.1-.4-.3-.9-.4-1.3l-2-6.2h-4.6l-2 5.7c-.3 1.1-.7 2.2-1 3.3-.2-.6-.4-1.3-.6-1.9-.2-.5-.4-1-.6-1.6L8 183.5l-4.7.1zm-2.7-5h-4.5v4.9h-1.9v3.3h1.9v10.4H.6v-10.4h2.5v-3.3H.6v-4.9zm-16.8 10.1c.2-.6.3-.8.3-1.1.7-1.3 1.9-1.5 2.4-1.5.6 0 1.1.2 1.3.3 1.2.6 1.5 1.9 1.5 2.3h-5.5zm9.9 2.6c0-1.4 0-2.5-.3-3.5-.3-1.2-1.4-3.6-4.6-4.6-.4-.1-1.1-.3-2.1-.3-1.8 0-3.1.6-3.7.9-1.7 1-2.4 2.2-2.7 2.9-.8 1.5-.8 2.8-.8 3.5 0 2.1.7 3.5 1.1 4.2.8 1.1 2.7 3.1 6.2 3.1 2.1 0 4.1-.7 5.6-2.3.5-.5.7-.9.9-1.2l-3.6-1.7c-.3.4-1.1 1.8-2.8 1.8-1.1 0-2.2-.6-2.7-1.6-.3-.4-.3-.9-.4-1.4h9.9v.2zm-15.8 5.9v-8.8c0-1.3-.1-2.4-.8-3.5-.5-.7-1.7-1.8-3.8-1.8-2.5 0-4 1.6-4.6 2.2v-1.8h-4.5v13.7h4.4v-6.8c0-1.1.1-2.2 1.1-3 .6-.5 1.3-.5 1.6-.5s.8 0 1.4.5c.7.6.7 1.5.7 2.3v7.5h4.5zm-115.2-11.7c-2.3 0-3.6 1.6-3.6 3.5 0 2 1.3 3.5 3.6 3.5s3.6-1.5 3.6-3.5c0-1.9-1.3-3.5-3.6-3.5zm43.3 0c-2.3 0-3.6 1.6-3.6 3.5 0 2 1.3 3.5 3.6 3.5s3.6-1.5 3.6-3.5c0-1.9-1.3-3.5-3.6-3.5zM-106 81c-38.7 0-70 31.3-70 70s31.3 70 70 70 70-31.3 70-70-31.4-70-70-70zm39 91.7h-20.6l-4.8-12.9H-114c8.1-10.4 18.4-21.7 29.7-33l17.3 45.9zm-18.4-48.8c-17.1 15.9-33.1 33-43.3 48.8h-5.4c13.1-19.7 29.6-36.1 47.6-51.9l1.1 3.1zM-116 98.5h21.1l5.5 14.6c-19 13-36.1 28-49.6 45.2l23-59.8zm24.6 18.4c.9-.7 1.7-1.4 2.6-2.1l1.3 3.4-2.1 1.8c-23 19.1-38.9 35.8-49.6 52.8h-4.7c10.8-17.9 28.6-36.4 52.5-55.9zm-36.9 80h-5.6v-1.7h-.1c-1 1.6-2.9 2.3-4.7 2.3-4.6 0-7.9-3.9-7.9-8.4s3.2-8.3 7.9-8.3c1.8 0 3.7.7 4.9 2v-1.5h5.6l-.1 15.6zm7.7.5c-2.2 0-4.4-.6-6.3-1.8l2-3.9c1.1.8 3 1.6 4.4 1.6.7 0 1.7-.3 1.7-1.2 0-1.2-1.7-1.3-3.5-1.7-1.7-.5-3.5-1.3-3.5-4.1 0-3.9 3.5-5.6 6.9-5.6 1.8 0 3.5.3 5.2 1l-1.9 3.5c-.9-.5-2-.8-3-.8-.6 0-1.7.3-1.7 1.1 0 1.1 1.7 1.2 2.5 1.4 2.6.5 4.6 1.7 4.6 4.6 0 4.2-3.7 5.9-7.4 5.9zm15.4-.5h-5.6v-15.7h5.6v15.7zm-2.8-18.6c-1.7 0-3.1-1.4-3.1-3.1 0-1.7 1.4-3.1 3.1-3.1s3.1 1.4 3.1 3.1c0 1.7-1.4 3.1-3.1 3.1zm23 18.6h-5.6v-1.7h-.1c-1 1.6-2.9 2.3-4.7 2.3-4.6 0-7.9-3.9-7.9-8.4s3.2-8.3 7.9-8.3c1.8 0 3.7.7 4.9 2v-1.5h5.6v15.6h-.1zm19.6 0H-71v-7.6c0-1.5.2-4.1-2.5-4.1-2.3 0-2.9 1.7-2.9 3.6v8.1H-82v-15.7h5.6v2h.1c1.3-1.9 2.8-2.5 5-2.5 4.2 0 5.9 2.7 5.9 6.5v9.7z" id="Asian_Net"/></svg>